<?xml version="1.0" standalone="no"?>
<!DOCTYPE svg PUBLIC "-//W3C//DTD SVG 20010904//EN"
 "http://www.w3.org/TR/2001/REC-SVG-20010904/DTD/svg10.dtd">
<svg version="1.0" xmlns="http://www.w3.org/2000/svg"
 width="260.000000pt" height="260.000000pt" viewBox="0 0 260.000000 260.000000"
 preserveAspectRatio="xMidYMid meet">
<metadata>
Created by potrace 1.11, written by Peter Selinger 2001-2013
</metadata>
<g transform="translate(0.000000,260.000000) scale(0.100000,-0.100000)"
fill="#000000" stroke="none">
<path d="M1041 2368 c-5 -13 -190 -482 -411 -1043 -221 -561 -404 -1026 -407
-1033 -4 -10 45 -12 238 -10 l243 3 90 248 89 247 406 -2 406 -3 90 -247 90
-248 243 0 c134 0 241 3 239 8 -3 4 -183 459 -400 1012 -217 553 -403 1024
-412 1048 l-17 42 -239 0 c-239 0 -240 0 -248 -22z m378 -860 c67 -181 121
-330 121 -333 0 -8 -500 -6 -500 3 -1 20 246 670 252 664 4 -4 61 -154 127
-334z"/>
</g>
</svg>
