<svg xmlns="http://www.w3.org/2000/svg" xmlns:xlink="http://www.w3.org/1999/xlink" width="800" height="266"><defs><linearGradient id="c" x1="24.739%" x2="17.714%" y1="47.033%" y2="0%"><stop offset="0%" stop-color="#FD5344"/><stop offset="100%" stop-color="#FC4B3B"/></linearGradient><linearGradient id="d" x1="31.792%" x2="7.76%" y1="6.196%" y2="89.761%"><stop offset="0%" stop-color="#FC672E"/><stop offset="100%" stop-color="#FC3A39"/></linearGradient><linearGradient id="e" x1="61.15%" x2="78.595%" y1="20.365%" y2="89.625%"><stop offset="0%" stop-color="#FB5B34"/><stop offset="100%" stop-color="#FA3131"/></linearGradient><rect id="a" width="800" height="266" rx="8"/></defs><g fill="none" fill-rule="evenodd"><mask id="b" fill="#fff"><use xlink:href="#a"/></mask><use fill="#FB571D" fill-rule="nonzero" xlink:href="#a"/><g fill-rule="nonzero" mask="url(#b)"><path fill="#FD5532" d="M340.557 254.739c68.456-38.205 81.244-139.586 73.943-217.543a170.843 170.843 0 00-4.191-18.155 416.119 416.119 0 00-12.377-42.837C331.546-232.429 113.143-352.472-98.932-296.893c-212.075 55.579-343.502 267.302-298.996 481.67l5.517 19.587a594.24 594.24 0 0042.089 120.91 283.703 283.703 0 01-23.674-125.162C-368.042 90.136-306.81-9.408-211.262-64.44-114.113-120.533-16.692-81.72 81 52c-17.038 88.668-32.692 120.38-46.96 95.134l5.137 8.251c28.048 43.208 70.662 74.95 120.13 89.482 51.61 15.878 134.163 36.326 181.25 9.872z"/><path fill="url(#c)" d="M485.704 550.117a72.706 72.706 0 00-3.26-.832c-38.476-8.883-76.869 15.107-85.751 53.583-3.752 16.251-1.64 32.488 4.952 46.492 8.062 136.554 137.604 230.293 280.18 247.689 124.899 16.667 219.548-17.93 277.024-130.153l-.023 1.531c-90.467 202.455-304.802 319.839-523.964 286.958a412.96 412.96 0 01-26.494-4.74 235.752 235.752 0 01-94.55-47.56c-69.989-58.883-105.417-149.199-94.156-240.03 8.091-66.675 42.822-104.153 95.248-168.86 52.425-64.707 100.422-69.33 176.987-43.23a115.69 115.69 0 00-6.193-.848z" transform="rotate(77 620.864 173.938)"/><path fill="url(#d)" d="M394.85 619.867c.386 32.205 22.65 61.186 55.426 68.753 10.23 2.361 20.456 2.4 30.121.459l-.074.32a446.41 446.41 0 003.694-1.146 71.485 71.485 0 008.964-2.935c156.142-53.152 139.848-158.908 128.022-477.787C616.198 77.967 498.443 91.3 406.397 55.82c405.81-215.526 944.14 247.437 537.398 481.714-6.815 125.68-127.665 259.308-248.478 294.78-148.192 45.329-344.236-70.022-301.38-214.86l.912 2.413z" transform="rotate(77 620.864 173.938)"/><path fill="url(#e)" d="M712.947 284.747C676.44 165.828 579.758 65.56 463.82 65.56a497.575 497.575 0 00-52.954 2.808 488.526 488.526 0 00-123.561 30.08c-37.51 14.13-58.834 53.77-49.946 92.848l70.205 212.77c37.518-19.42 92.277-48.96 157.397-43.553 65.12 5.407 116.453 52.241 137.268 98.914 20.815 46.673 6.882 111.049-20.178 158.524-20.962 37.186-68.888 67.227-104.94 72.245 173.743-23.519 287.723-235.795 235.837-405.45z" transform="rotate(77 620.864 173.938)"/></g></g></svg>