<?xml version="1.0" standalone="no"?>
<!DOCTYPE svg PUBLIC "-//W3C//DTD SVG 20010904//EN"
 "http://www.w3.org/TR/2001/REC-SVG-20010904/DTD/svg10.dtd">
<svg version="1.0" xmlns="http://www.w3.org/2000/svg"
 width="260.000000pt" height="260.000000pt" viewBox="0 0 260.000000 260.000000"
 preserveAspectRatio="xMidYMid meet">
<metadata>
Created by potrace 1.11, written by Peter Selinger 2001-2013
</metadata>
<g transform="translate(0.000000,260.000000) scale(0.100000,-0.100000)"
fill="#000000" stroke="none">
<path d="M0 1300 l0 -1300 1300 0 1300 0 0 1300 0 1300 -1300 0 -1300 0 0
-1300z m464 557 c44 -111 88 -223 98 -249 l18 -48 -53 0 -53 0 -21 58 -20 57
-103 0 -103 0 -19 -57 -20 -58 -54 0 c-31 0 -53 3 -51 8 3 4 46 113 97 242 50
128 94 238 96 242 3 4 29 8 57 8 l52 0 79 -203z m266 -47 l0 -250 -45 0 -45 0
0 250 0 250 45 0 45 0 0 -250z m312 100 c75 -21 134 -104 126 -176 l-3 -29
-128 -5 -127 -5 15 -22 c8 -12 31 -27 50 -33 29 -10 41 -8 82 10 l47 21 18
-23 c25 -32 19 -48 -26 -71 -48 -25 -138 -27 -183 -4 -82 43 -120 139 -88 222
19 51 83 112 124 118 47 7 56 7 93 -3z m770 0 c75 -21 134 -104 126 -176 l-3
-29 -128 -5 -127 -5 15 -22 c8 -12 31 -27 50 -33 29 -10 41 -8 82 10 l47 21
18 -23 c10 -13 18 -29 18 -35 0 -23 -82 -56 -140 -56 -84 0 -142 38 -175 115
-20 49 -19 84 4 133 23 50 58 83 108 100 47 17 58 18 105 5z m-465 -52 l31
-52 33 52 32 52 53 0 54 0 -56 -86 -56 -86 56 -84 c31 -46 56 -86 56 -89 0 -3
-22 -5 -49 -5 -48 0 -49 1 -86 56 l-37 57 -37 -56 -36 -57 -53 0 -53 0 60 89
60 89 -47 74 c-27 40 -51 79 -56 86 -5 9 6 12 46 12 l53 0 32 -52z m760 -53
c19 -55 38 -104 42 -108 5 -5 26 42 47 102 l38 111 48 0 c26 0 48 -2 48 -5 0
-18 -155 -414 -171 -437 -28 -38 -72 -60 -117 -56 -36 3 -37 4 -40 46 -3 40
-2 42 26 42 15 0 35 6 44 13 38 30 37 44 -19 186 -29 75 -60 153 -68 174 l-15
38 51 -3 52 -3 34 -100z m-1108 -601 c28 -6 31 -10 31 -45 0 -36 -2 -39 -28
-39 -36 0 -52 -16 -52 -52 0 -26 3 -28 40 -28 l40 0 0 -40 c0 -34 -3 -40 -22
-41 -13 -1 -30 -2 -38 -3 -12 -1 -16 -24 -18 -128 l-3 -128 -44 0 c-29 0 -45
4 -45 13 -1 6 -2 64 -3 127 -2 112 -3 115 -24 114 -20 0 -23 4 -23 43 0 39 2
43 25 43 23 0 25 3 25 51 0 62 12 87 53 104 37 16 44 17 86 9z m-535 -207 c44
-111 88 -223 98 -249 l18 -48 -53 0 -53 0 -21 58 -20 57 -101 3 -101 3 -22
-61 -22 -60 -54 0 c-30 0 -52 3 -50 8 3 4 46 113 97 242 50 128 94 238 96 242
3 4 29 8 57 8 l52 0 79 -203z m266 -47 l0 -250 -45 0 -45 0 0 250 0 250 45 0
45 0 0 -250z m572 100 c75 -21 134 -104 126 -176 l-3 -29 -128 -5 -127 -5 15
-22 c8 -12 31 -27 50 -33 29 -10 41 -8 82 10 l47 21 18 -23 c10 -13 18 -29 18
-35 0 -23 -82 -56 -140 -56 -84 0 -142 38 -175 115 -20 49 -19 84 4 133 23 50
58 83 108 100 47 17 58 18 105 5z m723 -25 c84 -49 111 -161 58 -242 -83 -129
-268 -113 -328 29 -20 49 -19 84 4 133 49 106 163 141 266 80z m-425 5 c0 -21
0 -21 29 1 26 19 82 24 81 7 0 -5 0 -24 0 -43 0 -32 -2 -35 -30 -35 -19 0 -40
-9 -55 -25 -23 -23 -25 -31 -25 -130 l0 -105 -50 0 -50 0 0 175 0 175 50 0
c44 0 50 -3 50 -20z m677 -85 c19 -55 38 -104 42 -108 5 -5 26 42 47 102 l38
111 48 0 c26 0 48 -3 48 -7 -1 -5 -29 -82 -63 -173 l-62 -165 -51 -3 -51 -3
-41 108 c-22 59 -52 139 -66 176 l-26 68 51 -3 52 -3 34 -100z"/>
<path d="M320 1915 c-33 -83 -50 -131 -50 -137 0 -5 27 -8 60 -8 42 0 60 4 59
13 0 6 -13 46 -29 87 l-28 75 -12 -30z"/>
<path d="M961 1828 c-13 -7 -31 -23 -39 -35 l-14 -23 81 0 c44 0 81 4 81 9 0
17 -35 50 -60 56 -14 3 -36 0 -49 -7z"/>
<path d="M1731 1828 c-13 -7 -31 -23 -39 -35 l-14 -23 81 0 c44 0 81 4 81 9 0
17 -35 50 -60 56 -14 3 -36 0 -49 -7z"/>
<path d="M320 1055 c-33 -83 -50 -131 -50 -137 0 -5 27 -8 60 -8 42 0 60 4 59
13 0 6 -13 46 -29 87 l-28 75 -12 -30z"/>
<path d="M1221 968 c-13 -7 -31 -23 -39 -35 l-14 -23 81 0 c44 0 81 4 81 9 0
17 -35 50 -60 56 -14 3 -36 0 -49 -7z"/>
<path d="M1873 946 c-23 -20 -28 -32 -28 -70 0 -82 73 -121 133 -71 27 22 32
34 32 70 0 36 -5 48 -31 69 -38 32 -70 33 -106 2z"/>
</g>
</svg>
