<svg xmlns="http://www.w3.org/2000/svg" width="296" height="494"><defs><clipPath id="a"><path fill="#fff" d="M9.21 37.743L285.145.083C291.132-.736 296 3.475 296 9.488v473.623c0 6.013-4.868 10.888-10.855 10.888H9.21C4.117 494 0 489.522 0 484V49c0-5.523 4.117-10.562 9.21-11.257z"/></clipPath></defs><g clip-path="url(#clip-25520)" opacity=".2"><path fill="none" stroke="#fff" stroke-miterlimit="20" stroke-width="2" d="M9.21 37.743L285.145.083C291.132-.736 296 3.475 296 9.488v473.623c0 6.013-4.868 10.888-10.855 10.888H9.21C4.117 494 0 489.522 0 484V49c0-5.523 4.117-10.562 9.21-11.257z" clip-path="url(&quot;#a&quot;)"/></g></svg>